<?xml version="1.0" encoding="utf-8"?>

<!DOCTYPE svg PUBLIC "-//W3C//DTD SVG 1.1//EN" "http://www.w3.org/Graphics/SVG/1.1/DTD/svg11.dtd">
<svg version="1.1" id="Layer_1" xmlns="http://www.w3.org/2000/svg" xmlns:xlink="http://www.w3.org/1999/xlink" x="0px" y="0px"
	 viewBox="0 0 1541.153 1634.092" enable-background="new 0 0 1541.153 1634.092" xml:space="preserve">
<g>
	<path d="M455.23,1572.439c-16.285,0.53-35.549-0.428-54.624,2.659c-28.536,4.618-30.71,17.206-49.271,32.122
		c-35.074,28.187-53.918-9.699-73.893-25.23c-2.308-1.794-4.556-4.194-5.745-6.81c-5.127-11.289-12.816-20.761-20.408-30.365
		c-12.551-15.878,6.073-35.756,15.944-41.601c12.45-7.372-10.99-10.569-10.871-25.82c0.026-3.314-4.412-5.398-7.689,0.409
		c-9.611,17.03-33.046,67.198-77.78,92.227c-37.627,21.052-58.55,4.259-67.317,0.935c-17.483-6.63-33.058-16.628-48.125-27.452
		c-4.852-3.486-12.316-3.637-14.218-10.999c-2.545-9.847-7.228-19.429-1.698-29.895c5.025-9.511,22.339-8.767,10.22-19.94
		c-9.443-8.707-10.284-25.343-1.856-35.879c11.316-14.145,17.433-26.52,43.397-28.755c24.778-2.133,36.067,2.518,53.985-20.571
		c7.883-10.158,86.397-187.045,106.029-254.612c5.762-19.831,6.528-23.232,0.732-26.672c-31.174-18.504-54.552-48.747-63.3-54.683
		c-4.983-3.381-7.565-8.731-8.425-15.132c-19.713-146.839-14.17-78.6-17.414-174.219c-0.727-21.427,4.601-42.276,10.275-62.997
		c13.29-48.53,50.394-47.128,50.133-121.473c-0.159-45.208,5.952-69.554,22.391-129.521c15.687-57.222,10.907-14.109,18.404-103.624
		c2.571-30.7,26.226-51.947,35.581-104.969c2.688-15.236-57.947-92.77-66.214-103.329c-32.502-41.509-47.987-70.849-44.81-104.262
		c1.551-16.312,0.979-33.605,11.616-47.496c11.783-15.388,11.972-48.039,27.226-67.232c30.139-37.921,74.188,35.978,151.04,75.884
		c19.673,10.215,18.461-0.832,30.557-1.884c43.596-3.79,111.256,34.641,148.396,57.545c107.875,66.527,96.499,252.601,61.575,263.75
		c-5.091,1.625-6.596,4.158-4.937,10.218c6.921,25.275,16.087,50.248,13.685,77.204c-9.756,109.493,4.44,166.167,96.732,259.573
		c76.869,77.795,184.622,286.07,231.696,392.892c5.142,11.669,5.991,24.017,8.697,36.073c17.8,79.303,16.172,28.874,13.646,145.139
		c-0.278,12.786-11.902,21.755,3.716,26.282c48.225,13.978,56.921,21.514,78.769,39.095
		c117.521,94.567,151.027,96.534,251.692,106.115c20.17,1.919,39.537,7.556,59.344,11.093c11.52,2.057,23.263,2.028,34.718,4.667
		c7.656,1.764,61.684-7.534,62.703-7.704c35.26-5.861,63.108,31.798-16.949,66.058c-34.28,14.67-35.89,16.388-55.687,16.764
		c-40.096,0.762-140.317-7.699-197.115-5.23c-50.525,2.197-127.339-40.346-176.608-64.386c-12.563-6.13-26.575-6.191-40.077-6.228
		c-21.746-0.061-42.345-6.419-63.515-9.526c-96.738-14.196-29.144,7.928-165.329,24.345c-25.402,3.062-50.236-1.739-75.011-5.986
		c-11.193-1.919-19.592-9.881-27.287-17.803c-10.548-10.86-23.91-18.774-32.7-31.453c-0.769-1.109-2.14-1.958-3.646-1.326
		c-3.937,1.653-1.588,3.078-3.321,22.488c-4.782,53.537-37.292,55.213-73.072,57.355
		C512.211,1569.883,485.227,1572.281,455.23,1572.439z M380.271,1409.033c9.495-3.053,21.287-2.185,32.87-4.307
		c53.909-9.874,63.493-7.046,40.958-48.365c-9.258-16.974-15.408-35.339-23.767-52.701c-4.252-8.83-8.172-17.435-6.771-27.672
		c8.142-59.499,1.327-32.664,13.513-78.531c0.761-2.866,0.513-4.959-1.705-6.781c-9.825-8.076-20.641-6.559-27.255,4.526
		c-73.541,123.249-108.242,151.221-115.57,193.225c-1.653,9.478,2.738,7.884,19.73,21.188c9.875,7.732,15.717-5.116,45.531-2.688
		C364.654,1407.484,371.489,1408.203,380.271,1409.033z M412.268,1503.314c5.185,1.103,9.954-1.546,14.972-1.617
		c9.187-0.131,43.923,0.326,88.951-9.386c21.812-4.705,11.457-17.555,7.903-30.899c-4.798-18.016-17.588,4.204-138.822,12.105
		c-49.865,3.249-45.65-5.912-65.319,4.112c-5.621,2.865-3.801,7.942,1.866,6.88c17.143-3.214,18.55,14.804,38.04,15.904
		C377.331,1501.398,394.855,1501.476,412.268,1503.314z"/>
</g>
</svg>
